<svg width="172.53132324218748px" height="135.2px" xmlns="http://www.w3.org/2000/svg" viewBox="163.73433837890627 7.400000000000006 172.53132324218748 135.2" style="background: rgba(0, 0, 0, 0);" preserveAspectRatio="xMidYMid"><defs>
  <filter id="editing-scratch" x="-100%" y="-100%" width="300%" height="300%">
    <!-- COLOR -->
    <feFlood flood-color="#ddd" flood-opacity="0.75" result="COLOR-blu"></feFlood>
    <feFlood flood-color="#666" flood-opacity="0.4" result="COLOR-red"></feFlood>
    <!-- COLOR END -->

    <!-- Texture -->
    <feTurbulence baseFrequency=".05" type="fractalNoise" numOctaves="3" seed="0" result="Texture_10"></feTurbulence>
    <feColorMatrix type="matrix" values="0 0 0 0 0,
    0 0 0 0 0,
    0 0 0 0 0,
    0 0 0 -2.1 1.1" in="Texture_10" result="Texture_20"></feColorMatrix>

    <feColorMatrix result="Texture_30" type="matrix" values="0 0 0 0 0,
    0 0 0 0 0,
    0 0 0 0 0,
    0 0 0 -1.7 1.8" in="Texture_10"></feColorMatrix>
    <!-- Texture -->

    <!-- FILL -->
    <feOffset dx="-3" dy="4" in="SourceAlpha" result="FILL_10"></feOffset>
    <feDisplacementMap scale="17" in="FILL_10" in2="Texture_10" result="FILL_20"></feDisplacementMap>
    <feComposite operator="in" in="Texture_30" in2="FILL_20" result="FILL_40"></feComposite>
    <feComposite operator="in" in="COLOR-blu" in2="FILL_40" result="FILL_50"></feComposite>
    <!-- FILL END-->

    <!-- OUTLINE -->
    <feMorphology operator="dilate" radius="3" in="SourceGraphic" result="OUTLINE_10"></feMorphology>
    <feComposite operator="out" in="OUTLINE_10" in2="SourceGraphic" result="OUTLINE_20"></feComposite>
    <feDisplacementMap scale="7" in="OUTLINE_20" in2="Texture_10" result="OUTLINE_30"></feDisplacementMap>
    <feComposite operator="arithmetic" k2="-1" k3="1" in="Texture_20" in2="OUTLINE_30" result="OUTLINE_40"></feComposite>
    <!-- OUTLINE END-->

    <!-- BEVEL OUTLINE -->
    <feConvolveMatrix order="8,8" divisor="1" kernelMatrix="1 0 0 0 0 0 0 0 0 1 0 0 0 0 0 0 0 0 1 0 0 0 0 0 0 0 0 1 0 0 0 0 0 0 0 0 1 0 0 0 0 0 0 0 0 1 0 0 0 0 0 0 0 0 1 0 0 0 0 0 0 0 0 1 " in="SourceGraphic" result="BEVEL_10"></feConvolveMatrix>
    <feMorphology operator="dilate" radius="2" in="BEVEL_10" result="BEVEL_20"></feMorphology>
    <feComposite operator="out" in="BEVEL_20" in2="BEVEL_10" result="BEVEL_30"></feComposite>
    <feDisplacementMap scale="7" in="BEVEL_30" in2="Texture_10" result="BEVEL_40"></feDisplacementMap>
    <feComposite operator="arithmetic" k2="-1" k3="1" in="Texture_20" in2="BEVEL_40" result="BEVEL_50"></feComposite>
    <feOffset dx="-7" dy="-7" in="BEVEL_50" result="BEVEL_60"></feOffset>
    <feComposite operator="out" in="BEVEL_60" in2="OUTLINE_10" result="BEVEL_70"></feComposite>
    <!-- BEVEL OUTLINE END -->

    <!-- BEVEL FILL -->
    <feOffset dx="-9" dy="-9" in="BEVEL_10" result="BEVEL-FILL_10"></feOffset>
    <feComposite operator="out" in="BEVEL-FILL_10" in2="OUTLINE_10" result="BEVEL-FILL_20"></feComposite>
    <feDisplacementMap scale="17" in="BEVEL-FILL_20" in2="Texture_10" result="BEVEL-FILL_30"></feDisplacementMap>
    <feComposite operator="in" in="COLOR-red" in2="BEVEL-FILL_30" result="BEVEL-FILL_50"></feComposite> <!-- -->
    <!-- BEVEL FILL END-->

    <feMerge result="merge2">
     <feMergeNode in="BEVEL-FILL_50"></feMergeNode>
     <feMergeNode in="BEVEL_70"></feMergeNode>
     <feMergeNode in="FILL_50"></feMergeNode>
      <feMergeNode in="OUTLINE_40"></feMergeNode>
    </feMerge>
  </filter>
</defs>
<g filter="url(#editing-scratch)"><g transform="translate(195.10001647472382, 99.55500411987305)"><path d="M13.33 0.87L13.33 0.87Q7.01 0.87 3.81-3.84L3.81-3.84L3.81-3.84Q0.62-8.56 0.62-17.24L0.62-17.24L0.62-17.24Q0.62-25.92 3.81-30.63L3.81-30.63L3.81-30.63Q7.01-35.34 13.33-35.34L13.33-35.34L13.33-35.34Q16.49-35.34 18.94-33.79L18.94-33.79L18.94-33.79Q21.39-32.24 22.94-30.26L22.94-30.26L22.94-38.07L19.28-38.07L19.28-48.24L37.20-48.24L37.20-10.17L39.93-10.17L39.93 0L22.94 0L22.94-4.22L22.94-4.22Q21.39-2.23 18.94-0.68L18.94-0.68L18.94-0.68Q16.49 0.87 13.33 0.87L13.33 0.87ZM19.34-10.17L19.34-10.17Q21.14-10.17 22.04-11.13L22.04-11.13L22.04-11.13Q22.94-12.09 22.94-14.14L22.94-14.14L22.94-20.34L22.94-20.34Q22.94-22.38 22.04-23.34L22.04-23.34L22.04-23.34Q21.14-24.30 19.34-24.30L19.34-24.30L19.34-24.30Q17.55-24.30 16.65-23.34L16.65-23.34L16.65-23.34Q15.75-22.38 15.75-20.34L15.75-20.34L15.75-14.14L15.75-14.14Q15.75-12.09 16.65-11.13L16.65-11.13L16.65-11.13Q17.55-10.17 19.34-10.17L19.34-10.17ZM57.54-37.88L44.89-37.88L44.89-48.24L57.54-48.24L57.54-37.88ZM61.63 0L41.91 0L41.91-10.17L44.64-10.17L44.64-24.30L41.91-24.30L41.91-34.47L58.90-34.47L58.90-10.17L61.63-10.17L61.63 0ZM91.76 0L73.28 0L65.47-24.30L62.87-24.30L62.87-34.47L82.03-34.47L82.03-24.30L79.42-24.30L82.71-12.03L83.33-12.03L86.61-24.30L84.01-24.30L84.01-34.47L101.99-34.47L101.99-24.30L99.39-24.30L91.76 0ZM109.18 0L99.51 0L99.51-10.17L109.18-10.17L109.18 0Z" fill="#000000"></path></g></g><style>text {
  font-size: 64px;
  font-family: Arial Black;
  dominant-baseline: central;
  text-anchor: middle;
}</style></svg>